<svg id="visual" viewBox="0 0 900 600" width="900" height="600" xmlns="http://www.w3.org/2000/svg" xmlns:xlink="http://www.w3.org/1999/xlink" version="1.1"><g transform="translate(489.8070428912749 283.38962676455594)"><path d="M155.3 -185.5C182.8 -161.9 174.1 -95.5 163.9 -45C153.6 5.6 141.8 40.3 123.9 71.8C106 103.3 82.1 131.5 43.8 164.7C5.5 198 -47.2 236.2 -90.5 229C-133.8 221.8 -167.8 169.1 -200.4 114.7C-233 60.3 -264.2 4.1 -249.7 -38C-235.1 -80.2 -174.8 -108.3 -125.5 -128.1C-76.3 -147.9 -38.1 -159.5 12.9 -174.8C63.9 -190.1 127.7 -209.2 155.3 -185.5" fill="#BFC9D2"></path></g></svg>