<svg id="visual" viewBox="0 0 900 600" width="900" height="600" xmlns="http://www.w3.org/2000/svg" xmlns:xlink="http://www.w3.org/1999/xlink" version="1.1"><g transform="translate(427.07651944934645 277.5626441937262)"><path d="M143.7 -154.8C184.6 -137 214.9 -90.1 218.8 -42.4C222.7 5.3 200.1 53.9 169.3 88.8C138.5 123.8 99.5 145.1 52.8 175C6.2 204.9 -48.2 243.4 -87.5 232.5C-126.7 221.6 -150.8 161.3 -160.8 109.5C-170.8 57.8 -166.6 14.6 -169.4 -40.3C-172.2 -95.2 -181.9 -161.7 -154.8 -182C-127.7 -202.2 -63.9 -176.1 -6.2 -168.7C51.4 -161.3 102.8 -172.6 143.7 -154.8" fill="#BFC9D2"></path></g></svg>